<?xml version="1.0" encoding="UTF-8"?><svg xmlns="http://www.w3.org/2000/svg" xmlns:xlink="http://www.w3.org/1999/xlink" fill-opacity="1" color-rendering="auto" color-interpolation="auto" text-rendering="auto" stroke="black" stroke-linecap="square" width="881" stroke-miterlimit="10" shape-rendering="auto" stroke-opacity="1" fill="black" stroke-dasharray="none" font-weight="normal" stroke-width="1" height="823" font-family="'Dialog'" font-style="normal" stroke-linejoin="miter" font-size="12px" stroke-dashoffset="0" image-rendering="auto">
  <!--Generated by ySVG 2.6-->
  <defs id="genericDefs"/>
  <g>
    <defs id="defs1">
      <clipPath clipPathUnits="userSpaceOnUse" id="clipPath1">
        <path d="M0 0 L881 0 L881 823 L0 823 L0 0 Z"/>
      </clipPath>
      <clipPath clipPathUnits="userSpaceOnUse" id="clipPath2">
        <path d="M30 -8 L911 -8 L911 815 L30 815 L30 -8 Z"/>
      </clipPath>
    </defs>
    <g fill="white" text-rendering="geometricPrecision" shape-rendering="geometricPrecision" transform="translate(-30,8)" stroke="white">
      <rect x="30" width="881" height="823" y="-8" clip-path="url(#clipPath2)" stroke="none"/>
    </g>
    <g text-rendering="geometricPrecision" stroke-miterlimit="1.45" shape-rendering="geometricPrecision" transform="matrix(1,0,0,1,-30,8)" stroke-linecap="butt">
      <rect fill="none" x="45" width="846.5" height="287" y="65.5" clip-path="url(#clipPath2)"/>
    </g>
    <g fill="rgb(255,204,0)" text-rendering="geometricPrecision" shape-rendering="geometricPrecision" transform="matrix(1,0,0,1,-30,8)" stroke="rgb(255,204,0)">
      <ellipse rx="136.5" ry="49" clip-path="url(#clipPath2)" cx="229.5" cy="160" stroke="none"/>
    </g>
    <g text-rendering="geometricPrecision" stroke-miterlimit="1.45" shape-rendering="geometricPrecision" transform="matrix(1,0,0,1,-30,8)" stroke-linecap="butt">
      <ellipse rx="136.5" fill="none" ry="49" clip-path="url(#clipPath2)" cx="229.5" cy="160"/>
      <text x="194.4668" xml:space="preserve" y="164.5352" clip-path="url(#clipPath2)" font-family="sans-serif" stroke="none">PassSchema</text>
    </g>
    <g fill="rgb(255,204,0)" text-rendering="geometricPrecision" shape-rendering="geometricPrecision" transform="matrix(1,0,0,1,-30,8)" stroke="rgb(255,204,0)">
      <path d="M601 160 L714.5 111 L828 160 L714.5 209 Z" fill-rule="evenodd" clip-path="url(#clipPath2)" stroke="none"/>
    </g>
    <g text-rendering="geometricPrecision" stroke-miterlimit="1.45" shape-rendering="geometricPrecision" transform="matrix(1,0,0,1,-30,8)" stroke-linecap="butt">
      <path fill="none" d="M601 160 L714.5 111 L828 160 L714.5 209 Z" fill-rule="evenodd" clip-path="url(#clipPath2)"/>
      <text x="673.1299" xml:space="preserve" y="164.5352" clip-path="url(#clipPath2)" font-family="sans-serif" stroke="none">PassDefinition</text>
      <rect fill="none" x="477" width="414.5" height="362" y="438" clip-path="url(#clipPath2)"/>
      <text x="667.4805" xml:space="preserve" y="623.5352" clip-path="url(#clipPath2)" font-family="sans-serif" stroke="none">Apple</text>
      <rect fill="none" x="45" width="421" height="362" y="438" clip-path="url(#clipPath2)"/>
      <text x="234.9746" xml:space="preserve" y="623.5352" clip-path="url(#clipPath2)" font-family="sans-serif" stroke="none">Google</text>
    </g>
    <g fill="rgb(255,204,0)" text-rendering="geometricPrecision" shape-rendering="geometricPrecision" transform="matrix(1,0,0,1,-30,8)" stroke="rgb(255,204,0)">
      <rect x="85" width="235" height="74" y="505" clip-path="url(#clipPath2)" stroke="none"/>
    </g>
    <g text-rendering="geometricPrecision" stroke-miterlimit="1.45" shape-rendering="geometricPrecision" transform="matrix(1,0,0,1,-30,8)" stroke-linecap="butt">
      <rect fill="none" x="85" width="235" height="74" y="505" clip-path="url(#clipPath2)"/>
      <text x="173.6162" xml:space="preserve" y="546.5352" clip-path="url(#clipPath2)" font-family="sans-serif" stroke="none">Pass class</text>
    </g>
    <g fill="rgb(153,204,255)" text-rendering="geometricPrecision" shape-rendering="geometricPrecision" transform="matrix(1,0,0,1,-30,8)" stroke="rgb(153,204,255)">
      <rect x="323" width="294" height="141" y="324.75" clip-path="url(#clipPath2)" stroke="none"/>
    </g>
    <g text-rendering="geometricPrecision" stroke-miterlimit="1.45" shape-rendering="geometricPrecision" transform="matrix(1,0,0,1,-30,8)" stroke-linecap="butt">
      <rect fill="none" x="323" width="294" height="141" y="324.75" clip-path="url(#clipPath2)"/>
      <text x="432.7754" xml:space="preserve" y="399.7852" clip-path="url(#clipPath2)" font-family="sans-serif" stroke="none">ModelEngine</text>
    </g>
    <g fill="rgb(255,204,0)" text-rendering="geometricPrecision" shape-rendering="geometricPrecision" transform="matrix(1,0,0,1,-30,8)" stroke="rgb(255,204,0)">
      <rect x="561" width="241" height="74" y="505" clip-path="url(#clipPath2)" stroke="none"/>
    </g>
    <g text-rendering="geometricPrecision" stroke-miterlimit="1.45" shape-rendering="geometricPrecision" transform="matrix(1,0,0,1,-30,8)" stroke-linecap="butt">
      <rect fill="none" x="561" width="241" height="74" y="505" clip-path="url(#clipPath2)"/>
      <text x="628.0596" xml:space="preserve" y="546.5352" clip-path="url(#clipPath2)" font-family="sans-serif" stroke="none">pkpass (Template)</text>
    </g>
    <g fill="rgb(255,204,0)" text-rendering="geometricPrecision" shape-rendering="geometricPrecision" transform="matrix(1,0,0,1,-30,8)" stroke="rgb(255,204,0)">
      <rect x="561" width="241" height="64" y="703" clip-path="url(#clipPath2)" stroke="none"/>
    </g>
    <g text-rendering="geometricPrecision" stroke-miterlimit="1.45" shape-rendering="geometricPrecision" transform="matrix(1,0,0,1,-30,8)" stroke-linecap="butt">
      <rect fill="none" x="561" width="241" height="64" y="703" clip-path="url(#clipPath2)"/>
      <text x="668.7529" xml:space="preserve" y="739.5352" clip-path="url(#clipPath2)" font-family="sans-serif" stroke="none">Pass</text>
    </g>
    <g fill="rgb(255,204,0)" text-rendering="geometricPrecision" shape-rendering="geometricPrecision" transform="matrix(1,0,0,1,-30,8)" stroke="rgb(255,204,0)">
      <rect x="85" width="235" height="48" y="703" clip-path="url(#clipPath2)" stroke="none"/>
    </g>
    <g text-rendering="geometricPrecision" stroke-miterlimit="1.45" shape-rendering="geometricPrecision" transform="matrix(1,0,0,1,-30,8)" stroke-linecap="butt">
      <rect fill="none" x="85" width="235" height="48" y="703" clip-path="url(#clipPath2)"/>
      <text x="168.9316" xml:space="preserve" y="731.5352" clip-path="url(#clipPath2)" font-family="sans-serif" stroke="none">Pass Object</text>
      <text x="81.001" xml:space="preserve" y="273.4688" clip-path="url(#clipPath2)" font-family="sans-serif" stroke="none">contains description of fields </text>
      <text x="84.5254" xml:space="preserve" y="287.6016" clip-path="url(#clipPath2)" font-family="sans-serif" stroke="none">+ transformation definitions</text>
      <text x="728.5039" xml:space="preserve" y="269.7109" clip-path="url(#clipPath2)" font-family="sans-serif" stroke="none">vendor-neutral </text>
      <text x="719.7559" xml:space="preserve" y="283.8438" clip-path="url(#clipPath2)" font-family="sans-serif" stroke="none">concrete definition</text>
      <text x="745.8359" xml:space="preserve" y="297.9766" clip-path="url(#clipPath2)" font-family="sans-serif" stroke="none">for a pass</text>
      <text x="712.124" xml:space="preserve" y="312.1094" clip-path="url(#clipPath2)" font-family="sans-serif" stroke="none">e.g. LMU Library pass</text>
      <text x="655.833" xml:space="preserve" y="418.5352" clip-path="url(#clipPath2)" font-family="sans-serif" stroke="none">Does transformation performs validation</text>
      <rect fill="none" x="186" width="600" height="48" y="7" clip-path="url(#clipPath2)"/>
      <text x="344.7969" font-size="28px" y="41.582" clip-path="url(#clipPath2)" font-family="sans-serif" stroke="none" xml:space="preserve">Semantic Pass Model</text>
      <path fill="none" d="M366 160 L593.0418 160" clip-path="url(#clipPath2)"/>
      <path d="M601.0418 160 L589.0418 155 L592.0418 160 L589.0418 165 Z" clip-path="url(#clipPath2)" stroke="none"/>
      <text x="429.5527" xml:space="preserve" y="194.5352" clip-path="url(#clipPath2)" font-family="sans-serif" stroke="none">describes pass def</text>
      <path fill="none" stroke-dasharray="0,4" d="M647.1075 179.9112 L556.4922 206.6836 L492.4355 226.5024 L437.3438 244.7188 L390.4668 261.8921 L351.0547 278.582 L318.3574 295.3481 L291.625 312.75 L270.1074 331.3472 L253.0547 351.6992 L239.7168 374.3657 L229.3438 399.9062 L221.1855 428.8804 L214.4922 461.8477 L208.0358 505" stroke-dashoffset="2" clip-path="url(#clipPath2)" stroke-linecap="round"/>
      <text x="191.1144" xml:space="preserve" y="377.7609" clip-path="url(#clipPath2)" font-family="sans-serif" stroke="none">linked by ID</text>
      <path fill="none" stroke-dasharray="6,2" d="M679.371 193.8 L549.0369 319.2032" clip-path="url(#clipPath2)"/>
      <path stroke-dasharray="6,2" d="M543.272 324.75 L555.386 320.0329 L549.7575 318.5099 L548.4526 312.8268 Z" clip-path="url(#clipPath2)" stroke="none"/>
      <text x="492.0433" xml:space="preserve" y="267.6342" clip-path="url(#clipPath2)" font-family="sans-serif" stroke="none">transforms and validates</text>
      <path fill="none" stroke-dasharray="6,2" d="M341.4906 465.75 L276.9585 501.1522" clip-path="url(#clipPath2)"/>
      <path stroke-dasharray="6,2" d="M269.9446 505 L282.8703 503.6119 L277.8352 500.6712 L278.0605 494.8446 Z" clip-path="url(#clipPath2)" stroke="none"/>
      <path fill="none" stroke-dasharray="6,2" d="M571.6064 465.75 L621.6019 500.4395" clip-path="url(#clipPath2)"/>
      <path stroke-dasharray="6,2" d="M628.1746 505 L621.1658 494.0512 L620.7803 499.8694 L615.4651 502.2672 Z" clip-path="url(#clipPath2)" stroke="none"/>
      <path fill="none" stroke-dasharray="0,4" d="M710.4193 207.2371 L684.6964 505" stroke-dashoffset="2" clip-path="url(#clipPath2)" stroke-linecap="round"/>
      <text x="664.5673" xml:space="preserve" y="340.2983" clip-path="url(#clipPath2)" font-family="sans-serif" stroke="none">linked by ID</text>
      <path fill="none" d="M665.2261 578.9691 L658.7188 595.0781 L653.0234 614.7559 L651.125 632.875 L653.0234 651.6973 L658.7188 673.4844 L666.4474 695.4792 L666.4833 695.5725" clip-path="url(#clipPath2)"/>
      <path d="M669.2087 703.094 L669.8216 690.1085 L666.1427 694.6323 L660.4197 693.5151 Z" clip-path="url(#clipPath2)" stroke="none"/>
      <path fill="none" d="M202.5 579 L202.5 703" clip-path="url(#clipPath2)"/>
      <path fill="none" stroke-dasharray="6,2" d="M203.7795 208.1223 L187.2872 238.9788" clip-path="url(#clipPath2)"/>
      <path fill="none" stroke-dasharray="6,2" d="M733.8213 200.6955 L758.1133 251.8605" clip-path="url(#clipPath2)"/>
      <path fill="none" stroke-dasharray="6,2" d="M617 404.3017 L657.0287 406.7665" clip-path="url(#clipPath2)"/>
    </g>
  </g>
</svg>
